<svg width="0" height="0" class="hidden">
	<symbol fill="none" xmlns="http://www.w3.org/2000/svg" viewBox="0 0 10 18" id="arrow-prev">
		<path fill-rule="evenodd" clip-rule="evenodd"
			  d="M9.634.616a1.25 1.25 0 010 1.768L3.018 9l6.616 6.616a1.25 1.25 0 01-1.768 1.768l-7.5-7.5a1.25 1.25 0 010-1.768l7.5-7.5a1.25 1.25 0 011.768 0z"
			  fill="#fff" fill-opacity=".8"></path>
	</symbol>
	<symbol fill="none" xmlns="http://www.w3.org/2000/svg" viewBox="0 0 10 18" id="arrow-next">
		<path fill-rule="evenodd" clip-rule="evenodd"
			  d="M.366.616a1.25 1.25 0 011.768 0l7.5 7.5a1.25 1.25 0 010 1.768l-7.5 7.5a1.25 1.25 0 01-1.768-1.768L6.982 9 .366 2.384a1.25 1.25 0 010-1.768z"
			  fill="#fff" fill-opacity=".8"></path>
	</symbol>
	<symbol fill="none" xmlns="http://www.w3.org/2000/svg" viewBox="0 0 24 24" id="envelope">
		<path
			d="M12.0076 12.4947C12.3316 12.4947 12.6179 12.344 12.9569 12.005L19.5261 5.48854C19.2322 5.22487 18.7124 5.0968 17.9817 5.0968H5.83018C5.1823 5.0968 4.72276 5.21734 4.45909 5.45841L11.0584 12.005C11.3899 12.344 11.6837 12.4947 12.0076 12.4947ZM3.73587 17.0524L9.15245 11.6886L3.74341 6.34736C3.60781 6.58843 3.53247 6.98771 3.53247 7.55272V15.8772C3.53247 16.4272 3.60027 16.8189 3.73587 17.0524ZM20.2643 17.0449C20.3924 16.8114 20.4602 16.4196 20.4602 15.8772V7.55272C20.4602 7.00277 20.3849 6.6035 20.2493 6.36996L14.8628 11.6886L20.2643 17.0449ZM6.01099 18.3331H18.1625C18.8254 18.3331 19.2925 18.2051 19.5637 17.9565L14.0492 12.4796L13.5821 12.9392C13.0623 13.4439 12.5651 13.685 12.0076 13.685C11.4502 13.685 10.9454 13.4439 10.4256 12.9392L9.95853 12.4796L4.45156 17.9414C4.75289 18.1975 5.28024 18.3331 6.01099 18.3331Z"
			fill="#f7ead6"></path>
	</symbol>
	<symbol fill="none" xmlns="http://www.w3.org/2000/svg" viewBox="0 0 24 24" id="phone">
		<path
			d="M8.7907 15.1616C11.0131 17.3915 13.7176 19.1091 15.9249 19.1091C16.9118 19.1091 17.7781 18.7626 18.4712 17.9942C18.878 17.5421 19.1266 17.0223 19.1266 16.5025C19.1266 16.1033 18.9684 15.7115 18.5842 15.4403L16.2715 13.798C15.9023 13.5419 15.601 13.4213 15.3298 13.4213C14.9757 13.4213 14.6593 13.6172 14.3127 13.9637L13.7703 14.5062C13.6799 14.589 13.5745 14.6267 13.4765 14.6267C13.356 14.6267 13.243 14.5815 13.1677 14.5363C12.693 14.2802 11.8794 13.5871 11.1261 12.8337C10.3727 12.0804 9.67212 11.2743 9.42351 10.7921C9.37831 10.7093 9.34065 10.6038 9.34065 10.4833C9.34065 10.3929 9.37078 10.2874 9.45365 10.197L9.99606 9.64706C10.3351 9.29299 10.5385 8.98411 10.5385 8.63004C10.5385 8.3513 10.4179 8.04996 10.1618 7.68835L8.52703 5.39818C8.24829 5.00643 7.85655 4.8407 7.42714 4.8407C6.91486 4.8407 6.40259 5.0667 5.95811 5.49611C5.20476 6.20426 4.87329 7.08568 4.87329 8.0575C4.87329 10.2648 6.56832 12.9392 8.7907 15.1616Z"
			fill="#f7ead6"></path>
	</symbol>
	<symbol fill="none" xmlns="http://www.w3.org/2000/svg" viewBox="0 0 16 16" id="close">
		<path fill-rule="evenodd" clip-rule="evenodd"
			  d="M8 6.59824L14.3079 0.290314C14.695 -0.0967714 15.3226 -0.0967714 15.7097 0.290314C16.0968 0.6774 16.0968 1.30499 15.7097 1.69208L9.40176 8L15.7097 14.3079C16.0968 14.695 16.0968 15.3226 15.7097 15.7097C15.3226 16.0968 14.695 16.0968 14.3079 15.7097L8 9.40176L1.69208 15.7097C1.30499 16.0968 0.6774 16.0968 0.290314 15.7097C-0.0967714 15.3226 -0.0967714 14.695 0.290314 14.3079L6.59824 8L0.290314 1.69208C-0.0967714 1.30499 -0.0967714 0.6774 0.290314 0.290314C0.6774 -0.0967714 1.30499 -0.0967714 1.69208 0.290314L8 6.59824Z"
			  fill="#fff"></path>
	</symbol>
	<symbol enable-background="new 0 0 32 32" id="search" xml:space="preserve" xmlns="http://www.w3.org/2000/svg" xmlns:xlink="http://www.w3.org/1999/xlink" viewBox="0 0 32 32">
    <path d="M27.414,24.586l-5.077-5.077C23.386,17.928,24,16.035,24,14c0-5.514-4.486-10-10-10S4,8.486,4,14  s4.486,10,10,10c2.035,0,3.928-0.614,5.509-1.663l5.077,5.077c0.78,0.781,2.048,0.781,2.828,0  C28.195,26.633,28.195,25.367,27.414,24.586z M7,14c0-3.86,3.14-7,7-7s7,3.14,7,7s-3.14,7-7,7S7,17.86,7,14z" id="XMLID_227_" fill="#fff"></path>
		<path d="M19,14c0,0.552-0.448,1-1,1h-3v3c0,0.552-0.448,1-1,1s-1-0.448-1-1v-3h-3c-0.552,0-1-0.448-1-1s0.448-1,1-1  h3v-3c0-0.552,0.448-1,1-1s1,0.448,1,1v3h3C18.552,13,19,13.448,19,14z" id="XMLID_230_" fill="#fff"></path>
  </symbol>
</svg>
